<svg width="65" height="65" viewBox="0 0 65 65" fill="none" xmlns="http://www.w3.org/2000/svg">
<g filter="url(#filter0_i_3_1530)">
<path d="M24 17.9474C23.1716 16.5126 21.3234 16.0072 19.998 17.0015C17.9627 18.5283 16.1677 20.3604 14.6788 22.4381C12.606 25.3307 11.1746 28.6325 10.4804 32.1227C9.78611 35.613 9.845 39.2112 10.6531 42.6769C11.4612 46.1426 12.9998 49.3958 15.1662 52.219C17.3325 55.0423 20.0766 57.3705 23.2151 59.048C26.3535 60.7256 29.8139 61.7137 33.3649 61.9465C36.9159 62.1792 40.4757 61.6512 43.8062 60.3976C46.1984 59.4973 48.4328 58.2376 50.4343 56.6668C51.7377 55.6439 51.7279 53.7279 50.5563 52.5564L47.5946 49.5946C46.423 48.423 44.5356 48.4541 43.1523 49.366C42.2352 49.9706 41.2512 50.473 40.2173 50.8621C38.2441 51.6048 36.1351 51.9176 34.0313 51.7797C31.9275 51.6418 29.8773 51.0564 28.0179 50.0625C26.1586 49.0686 24.5328 47.6893 23.2493 46.0166C21.9658 44.344 21.0543 42.4166 20.5755 40.3633C20.0968 38.3101 20.0619 36.1783 20.4732 34.1104C20.8845 32.0426 21.7325 30.0864 22.9606 28.3727C23.604 27.4748 24.344 26.6543 25.1653 25.9249C26.4042 24.8248 26.9227 23.0097 26.0943 21.5749L24 17.9474Z" fill="#DAE9F5"/>
<path d="M24 17.9474C23.1716 16.5126 21.3234 16.0072 19.998 17.0015C17.9627 18.5283 16.1677 20.3604 14.6788 22.4381C12.606 25.3307 11.1746 28.6325 10.4804 32.1227C9.78611 35.613 9.845 39.2112 10.6531 42.6769C11.4612 46.1426 12.9998 49.3958 15.1662 52.219C17.3325 55.0423 20.0766 57.3705 23.2151 59.048C26.3535 60.7256 29.8139 61.7137 33.3649 61.9465C36.9159 62.1792 40.4757 61.6512 43.8062 60.3976C46.1984 59.4973 48.4328 58.2376 50.4343 56.6668C51.7377 55.6439 51.7279 53.7279 50.5563 52.5564L47.5946 49.5946C46.423 48.423 44.5356 48.4541 43.1523 49.366C42.2352 49.9706 41.2512 50.473 40.2173 50.8621C38.2441 51.6048 36.1351 51.9176 34.0313 51.7797C31.9275 51.6418 29.8773 51.0564 28.0179 50.0625C26.1586 49.0686 24.5328 47.6893 23.2493 46.0166C21.9658 44.344 21.0543 42.4166 20.5755 40.3633C20.0968 38.3101 20.0619 36.1783 20.4732 34.1104C20.8845 32.0426 21.7325 30.0864 22.9606 28.3727C23.604 27.4748 24.344 26.6543 25.1653 25.9249C26.4042 24.8248 26.9227 23.0097 26.0943 21.5749L24 17.9474Z" stroke="#DAE9F5"/>
</g>
<g clip-path="url(#clip0_3_1530)">
<path d="M26.9722 30.4912C26.9722 30.4912 26.9722 45.536 30.2552 54.2551C33.5382 62.9743 33.711 63.3162 33.8838 64H35.6117C35.6117 64 36.3029 60.7517 35.9573 58.1873C35.6117 55.6228 34.7478 52.7165 35.7845 50.323C36.8213 47.9295 39.7587 41.2619 40.9683 36.9878C42.1778 32.7137 43.9057 26.2171 44.0785 25.5333C44.2513 24.8494 40.0179 31.6025 37.7716 33.654C35.5253 35.7056 34.3158 37.2443 31.5511 36.7314C28.7865 36.2185 26.9722 30.4912 26.9722 30.4912Z" fill="#718FDB"/>
<path d="M36.6485 31.859C36.6485 33.0865 34.9516 34.9363 33.711 34.9363C32.4704 34.9363 32.1559 33.7704 32.1559 32.5429C32.1559 31.3153 33.1615 29.6365 34.4022 29.6365C35.7845 29.6365 36.6485 30.6315 36.6485 31.859Z" fill="#718FDB"/>
<path d="M36.0904 27.1385C27.8292 28.8481 20.6428 27.9403 20.0398 25.0972C19.5542 22.7977 23.506 19.9529 29.3912 18.0381L29.4794 18.0091L29.3947 18.0433C26.6577 19.1101 24.9488 20.4367 25.1613 21.5395C25.4862 23.2217 30.1446 23.762 35.5702 22.7362C40.9959 21.7104 45.1291 19.5238 44.8059 17.8415C44.5675 16.5935 41.9428 15.9763 38.3937 16.1575H38.347H38.3954C44.628 15.5421 49.4696 16.5798 49.9586 18.8929C50.5599 21.7292 44.3515 25.4237 36.0904 27.1385Z" fill="#718FDB"/>
<path d="M31.1191 5.53051C31.1191 5.53051 30.7735 6.55629 29.3912 8.09496C28.0089 9.63363 26.6265 11.1723 27.4905 13.0529C28.3544 14.9335 30.2551 16.8141 30.2551 16.8141C30.2551 16.8141 29.6504 13.9932 30.5143 11.7707C31.3783 9.54815 32.0695 7.83852 31.5511 6.47081C31.0327 5.1031 31.1191 5.53051 31.1191 5.53051Z" fill="#718FDB"/>
<path d="M34.4021 15.6174C34.4021 15.6174 35.4389 18.1818 35.7845 18.3528C35.7845 18.3528 36.1301 16.4722 37.858 14.4206C39.5859 12.3691 40.7954 10.3175 39.5859 6.21438C39.5859 6.21438 38.9811 8.18046 38.1171 8.86432C38.1171 8.86432 38.4627 2.8806 35.0069 1C35.0069 1 35.0069 3.90638 33.4518 7.32564C31.8967 10.7449 29.4776 14.5061 31.5511 17.5834C33.6246 20.6608 33.7974 20.8318 33.7974 20.8318C33.7974 20.8318 33.4518 17.2415 34.143 16.0448L34.4021 15.6174Z" fill="#718FDB"/>
<path d="M38.347 16.1594H38.3937H38.347ZM29.3947 18.04L29.4794 18.0058L29.3912 18.0349L29.3947 18.04Z" fill="#718FDB"/>
</g>
<defs>
<filter id="filter0_i_3_1530" x="10" y="16.4841" width="42.424" height="45.5159" filterUnits="userSpaceOnUse" color-interpolation-filters="sRGB">
<feFlood flood-opacity="0" result="BackgroundImageFix"/>
<feBlend mode="normal" in="SourceGraphic" in2="BackgroundImageFix" result="shape"/>
<feColorMatrix in="SourceAlpha" type="matrix" values="0 0 0 0 0 0 0 0 0 0 0 0 0 0 0 0 0 0 127 0" result="hardAlpha"/>
<feOffset dx="1"/>
<feGaussianBlur stdDeviation="1"/>
<feComposite in2="hardAlpha" operator="arithmetic" k2="-1" k3="1"/>
<feColorMatrix type="matrix" values="0 0 0 0 0.645573 0 0 0 0 0.752199 0 0 0 0 0.8375 0 0 0 1 0"/>
<feBlend mode="normal" in2="shape" result="effect1_innerShadow_3_1530"/>
</filter>
<clipPath id="clip0_3_1530">
<rect width="30" height="63" fill="white" transform="translate(20 1)"/>
</clipPath>
</defs>
</svg>
