<svg width="50" height="50" viewBox="0 0 50 50" fill="none" xmlns="http://www.w3.org/2000/svg">
<path d="M37.5113 19.2674L25.7437 15.1155C25.586 15.0598 25.414 15.0598 25.2563 15.1155L13.4888 19.2674C13.1962 19.3706 13.0004 19.647 13 19.9572C12.9996 20.2675 13.1948 20.5443 13.4871 20.6482L25.2547 24.8316C25.334 24.8599 25.417 24.874 25.5 24.874C25.583 24.874 25.666 24.8599 25.7453 24.8316L37.5129 20.6482C37.8052 20.5443 38.0003 20.2675 38 19.9572C37.9996 19.647 37.8038 19.3706 37.5113 19.2674Z" fill="#718FDB"/>
<path d="M36.241 29.0437V22.655L34.7761 23.1758V29.0437C34.3349 29.2977 34.0376 29.7735 34.0376 30.3191C34.0376 30.8647 34.3349 31.3406 34.7761 31.5946V35.194C34.7761 35.5985 35.1041 35.9264 35.5085 35.9264C35.913 35.9264 36.241 35.5985 36.241 35.194V31.5946C36.6822 31.3407 36.9795 30.8648 36.9795 30.3192C36.9795 29.7735 36.6822 29.2977 36.241 29.0437Z" fill="#718FDB"/>
<path d="M25.4998 26.3386C25.2484 26.3386 25.0008 26.2959 24.7638 26.2117L18.1484 23.8599V27.0829C18.1484 27.8714 18.971 28.5383 20.5934 29.0648C22.0075 29.5238 23.75 29.7766 25.4998 29.7766C27.2496 29.7766 28.992 29.5238 30.4062 29.0648C32.0286 28.5383 32.8512 27.8714 32.8512 27.0829V23.8599L26.2358 26.2117C25.9988 26.2959 25.7512 26.3386 25.4998 26.3386Z" fill="#718FDB"/>
<g filter="url(#filter0_i_3_2888)">
<path d="M25 3C25 1.34314 23.6521 -0.0185643 22.0072 0.179785C19.4812 0.484374 17.0105 1.17352 14.6823 2.2284C11.4409 3.69708 8.55037 5.84084 6.204 8.51635C3.85764 11.1919 2.10951 14.3375 1.07649 17.7429C0.0434764 21.1483 -0.250616 24.735 0.213878 28.2632C0.678373 31.7913 1.89075 35.1797 3.76995 38.2017C5.64914 41.2237 8.15185 43.8097 11.1107 45.7867C14.0696 47.7638 17.4165 49.0864 20.9276 49.6661C23.4495 50.0824 26.0143 50.1087 28.5331 49.7491C30.1733 49.5149 31.1228 47.8508 30.694 46.2504L29.6099 42.2045C29.1811 40.6041 27.531 39.6873 25.8771 39.7854C24.7806 39.8505 23.6772 39.7935 22.5873 39.6136C20.5071 39.2701 18.5242 38.4866 16.7712 37.3152C15.0182 36.1439 13.5355 34.6118 12.4221 32.8214C11.3088 31.031 10.5905 29.0236 10.3153 26.9333C10.0401 24.843 10.2143 22.718 10.8264 20.7005C11.4384 18.6829 12.4741 16.8193 13.8642 15.2342C15.2543 13.649 16.9668 12.3789 18.8872 11.5088C19.8934 11.0529 20.9445 10.7123 22.0204 10.4914C23.6434 10.1581 25 8.84544 25 7.18858V3Z" fill="#DAE9F5"/>
<path d="M25 3C25 1.34314 23.6521 -0.0185643 22.0072 0.179785C19.4812 0.484374 17.0105 1.17352 14.6823 2.2284C11.4409 3.69708 8.55037 5.84084 6.204 8.51635C3.85764 11.1919 2.10951 14.3375 1.07649 17.7429C0.0434764 21.1483 -0.250616 24.735 0.213878 28.2632C0.678373 31.7913 1.89075 35.1797 3.76995 38.2017C5.64914 41.2237 8.15185 43.8097 11.1107 45.7867C14.0696 47.7638 17.4165 49.0864 20.9276 49.6661C23.4495 50.0824 26.0143 50.1087 28.5331 49.7491C30.1733 49.5149 31.1228 47.8508 30.694 46.2504L29.6099 42.2045C29.1811 40.6041 27.531 39.6873 25.8771 39.7854C24.7806 39.8505 23.6772 39.7935 22.5873 39.6136C20.5071 39.2701 18.5242 38.4866 16.7712 37.3152C15.0182 36.1439 13.5355 34.6118 12.4221 32.8214C11.3088 31.031 10.5905 29.0236 10.3153 26.9333C10.0401 24.843 10.2143 22.718 10.8264 20.7005C11.4384 18.6829 12.4741 16.8193 13.8642 15.2342C15.2543 13.649 16.9668 12.3789 18.8872 11.5088C19.8934 11.0529 20.9445 10.7123 22.0204 10.4914C23.6434 10.1581 25 8.84544 25 7.18858V3Z" stroke="#DAE9F5"/>
</g>
<defs>
<filter id="filter0_i_3_2888" x="0" y="0.160645" width="31.7969" height="49.8394" filterUnits="userSpaceOnUse" color-interpolation-filters="sRGB">
<feFlood flood-opacity="0" result="BackgroundImageFix"/>
<feBlend mode="normal" in="SourceGraphic" in2="BackgroundImageFix" result="shape"/>
<feColorMatrix in="SourceAlpha" type="matrix" values="0 0 0 0 0 0 0 0 0 0 0 0 0 0 0 0 0 0 127 0" result="hardAlpha"/>
<feOffset dx="1"/>
<feGaussianBlur stdDeviation="1"/>
<feComposite in2="hardAlpha" operator="arithmetic" k2="-1" k3="1"/>
<feColorMatrix type="matrix" values="0 0 0 0 0.645573 0 0 0 0 0.752199 0 0 0 0 0.8375 0 0 0 1 0"/>
<feBlend mode="normal" in2="shape" result="effect1_innerShadow_3_2888"/>
</filter>
</defs>
</svg>
